<svg id="SVGRoot" viewBox="0 0 64 64" xmlns="http://www.w3.org/2000/svg"><path d="m48 2c-2.1973 0-4 1.8027-4 4 0 2.0499 1.5699 3.7548 3.5645 3.9746l1.3066 9.0391c-1.9261 1.0036-3.4491 2.6814-4.248 4.7207 2.1425 3.5912 3.377 7.7849 3.377 12.266.000003.55229-.44771 1-1 1-.55229.000003-1-.44771-1-1 0-12.138-9.8616-22-22-22s-22 9.8616-22 22 9.8616 22 22 22c9.6814-.01055 15.192-8.4009 15-15 0-8.2961-6.7039-15-15-15-4.4301 0-8 3.5699-8 8s3.5699 8 8 8c2.2151 0 4.2074-.89491 5.6562-2.3438.39051-.39042 1.0236-.39042 1.4141 0 .39042.39051.39042 1.0236 0 1.4141-1.8085 1.8085-4.3148 2.9297-7.0703 2.9297-5.511 0-10-4.489-10-10s4.489-10 10-10c9.377 0 17 7.623 17 17 .14986 9.2069-7.5873 17.052-17 17-6.8745.0358-12.19-2.8129-15.957-6.0859-.54768.13965-1.0752.2903-1.5625.45898-1.2506.43288-2.2958.9501-3.0918 1.6016-.79602.65146-1.3887 1.5138-1.3887 2.5254s.70298 1.8701 1.5508 2.3223c.8478.4522 1.8893.68645 3.125.85156 2.4714.33022 5.7337.32617 9.3242.32617h31c8.2724 0 15-6.7276 15-15v-20c0-3.4621-1.9728-6.4721-4.8496-7.9766l1.293-9.0488c1.9909-.22332 3.5566-1.9274 3.5566-3.9746 0-2.1973-1.8027-4-4-4s-4 1.8027-4 4c0 1.6538 1.0208 3.0831 2.4629 3.6895l-1.2285 8.6035c-.71601-.18427-1.4621-.29297-2.2344-.29297-.76398 0-1.5044.10058-2.2129.28125l-1.2422-8.5938c1.4382-.60811 2.4551-2.0365 2.4551-3.6875 0-2.1973-1.8027-4-4-4z" fill-rule="evenodd" fill="#FF0000"></path></svg>